<svg width="28" height="23" viewBox="0 0 28 23" fill="none" xmlns="http://www.w3.org/2000/svg">
<path d="M2.59625 0.919998V0.599998H8.29225V18.776C8.29225 20.4613 7.95092 21.592 7.26825 22.168C6.58558 22.7227 5.55092 23 4.16425 23C2.79892 23 1.58292 22.7973 0.51625 22.392L0.61225 22.136C1.63625 22.5413 2.69225 22.744 3.78025 22.744C4.50558 22.744 4.98558 22.4347 5.22025 21.816C5.47625 21.1973 5.60425 20.1947 5.60425 18.808V0.919998H2.59625ZM12.7713 0.855999C15.2459 0.685332 17.4219 0.599998 19.2993 0.599998C24.5899 0.599998 27.2353 2.46667 27.2353 6.2C27.2353 7.928 26.7873 9.44267 25.8913 10.744C25.4219 11.448 24.6966 12.0133 23.7153 12.44C22.7339 12.8453 21.5499 13.048 20.1633 13.048H15.4273V23H12.7713V0.855999ZM19.3313 0.919998C18.0939 0.919998 16.7926 0.994665 15.4273 1.144V12.728H20.1633C23.1713 12.6 24.6753 10.4453 24.6753 6.264C24.6753 4.55733 24.2273 3.24533 23.3313 2.328C22.4353 1.38933 21.1019 0.919998 19.3313 0.919998Z" fill="#F0F0E5"/>
</svg>
