<svg width="28" height="23" viewBox="0 0 28 23" fill="none" xmlns="http://www.w3.org/2000/svg">
<path d="M2.59636 0.920097V0.600098H8.29236V18.7761C8.29236 20.4614 7.95102 21.5921 7.26836 22.1681C6.58569 22.7228 5.55102 23.0001 4.16436 23.0001C2.79902 23.0001 1.58302 22.7974 0.516357 22.3921L0.612357 22.1361C1.63636 22.5414 2.69236 22.7441 3.78036 22.7441C4.50569 22.7441 4.98569 22.4348 5.22036 21.8161C5.47636 21.1974 5.60436 20.1948 5.60436 18.8081V0.920097H2.59636Z" fill="#161616"/>
<path d="M12.7714 0.856098C15.246 0.685431 17.422 0.600098 19.2994 0.600098C24.59 0.600098 27.2354 2.46676 27.2354 6.2001C27.2354 7.9281 26.7874 9.44276 25.8914 10.7441C25.422 11.4481 24.6967 12.0134 23.7154 12.4401C22.734 12.8454 21.55 13.0481 20.1634 13.0481H15.4274V23.0001H12.7714V0.856098ZM19.3314 0.920097C18.094 0.920097 16.7927 0.994764 15.4274 1.1441V12.7281H20.1634C23.1714 12.6001 24.6754 10.4454 24.6754 6.2641C24.6754 4.55743 24.2274 3.24543 23.3314 2.3281C22.4354 1.38943 21.102 0.920097 19.3314 0.920097Z" fill="#161616"/>
</svg>
